<svg
  version="1.0"
  id="Layer_1"
  xmlns="http://www.w3.org/2000/svg"
  xmlns:xlink="http://www.w3.org/1999/xlink"
  viewBox="0 0 64 64"
  enable-background="new 0 0 64 64"
  xml:space="preserve"
  fill="none">
  <g id="SVGRepo_bgCarrier" stroke-width="0"></g>
  <g id="SVGRepo_tracerCarrier" stroke-linecap="round" stroke-linejoin="round"></g>
  <g id="SVGRepo_iconCarrier">
    <g>
      <path fill="#000000" d="M32,0C18.148,0,12,23.188,12,32c0,9.656,6.883,17.734,16,19.594V60c0,2.211,1.789,4,4,4s4-1.789,4-4v-8.406 C45.117,49.734,52,41.656,52,32C52,22.891,46.051,0,32,0z M32,44c-6.617,0-12-5.383-12-12c0-8.812,5.93-24,12-24 c6.566,0,12,15.891,12,24C44,38.617,38.617,44,32,44z"></path> 
      <path fill="#f3f3f5" d="M32,44c-6.617,0-12-5.383-12-12c0-8.812,5.93-24,12-24c6.566,0,12,15.891,12,24C44,38.617,38.617,44,32,44z "></path> 
    </g>
  </g>
</svg>
