<svg width="48" height="48" viewBox="0 0 48 48" fill="none" xmlns="http://www.w3.org/2000/svg">
<rect width="48" height="48" fill="white" style="mix-blend-mode:multiply"/>
<path d="M42 6C42.7957 6 43.5585 6.3163 44.1211 6.87891C44.6837 7.44152 45 8.20435 45 9V15C45 15.7956 44.6837 16.5585 44.1211 17.1211C43.5585 17.6837 42.7957 18 42 18V42C42 42.7957 41.6837 43.5585 41.1211 44.1211C40.5585 44.6837 39.7957 45 39 45H9C8.20435 45 7.44152 44.6837 6.87891 44.1211C6.3163 43.5585 6 42.7957 6 42V18C5.20435 18 4.44152 17.6837 3.87891 17.1211C3.3163 16.5585 3 15.7956 3 15V9C3 8.20435 3.3163 7.44152 3.87891 6.87891C4.44152 6.3163 5.20435 6 6 6H42ZM9 18V42H39V18H9ZM6 9V15H42V9H6Z" fill="currentColor"/>
<path d="M27 42V34.5H28.5C30.0907 34.4982 31.6158 33.8655 32.7407 32.7407C33.8655 31.6158 34.4982 30.0908 34.5 28.5V24H30C28.4641 24.0025 26.9884 24.5971 25.8798 25.66C25.1029 24.2498 23.9621 23.0736 22.5762 22.254C21.1904 21.4344 19.6101 21.0014 18 21H13.5V25.5C13.5026 27.8861 14.4517 30.1738 16.1389 31.8611C17.8262 33.5483 20.1139 34.4974 22.5 34.5H24V42V45H27V42ZM30 27H31.5V28.5C31.4992 29.2954 31.1829 30.058 30.6204 30.6204C30.058 31.1829 29.2954 31.4992 28.5 31.5H27V30C27.0008 29.2046 27.3171 28.442 27.8796 27.8796C28.442 27.3171 29.2046 27.0008 30 27ZM22.5 31.5C20.9092 31.4982 19.3842 30.8655 18.2593 29.7407C17.1345 28.6158 16.5018 27.0908 16.5 25.5V24H18C19.5908 24.0018 21.1158 24.6345 22.2407 25.7593C23.3655 26.8842 23.9982 28.4092 24 30V31.5H22.5Z" fill="currentColor"/>
</svg>
