<svg width="48" height="48" viewBox="0 0 48 48" fill="none" xmlns="http://www.w3.org/2000/svg">
<rect width="48" height="48" fill="white" style="mix-blend-mode:multiply"/>
<path d="M43.6816 25.3184C43.2666 24.9009 42.7732 24.5696 42.2298 24.3434C41.6864 24.1171 41.1036 24.0004 40.515 24H40.5C39.9088 23.9982 39.3232 24.1139 38.777 24.3402C38.2308 24.5665 37.735 24.899 37.3184 25.3184L29.9667 32.67C29.8856 31.5396 29.3802 30.4817 28.5518 29.7083C27.7234 28.935 26.6333 28.5034 25.5 28.5H15C13.0116 28.5024 11.1053 29.2933 9.69929 30.6993C8.29327 32.1053 7.50234 34.0116 7.5 36V37.0005L3 42.9947L5.4 44.7947L10.5 37.9995V36C10.5013 34.8069 10.9758 33.6631 11.8195 32.8195C12.6631 31.9759 13.8069 31.5013 15 31.5H25.5C25.8978 31.5 26.2794 31.6581 26.5607 31.9394C26.842 32.2207 27 32.6022 27 33C27 33.3978 26.842 33.7794 26.5607 34.0607C26.2794 34.342 25.8978 34.5 25.5 34.5H19.5V37.5H26.893C27.6814 37.5023 28.4624 37.3481 29.1907 37.0464C29.919 36.7446 30.5802 36.3013 31.1359 35.7422L39.4395 27.4395C39.5784 27.2997 39.7437 27.1889 39.9257 27.1135C40.1077 27.038 40.3029 26.9995 40.5 27H40.5051C40.8013 27.0011 41.0905 27.0898 41.3364 27.255C41.5822 27.4202 41.7736 27.6545 41.8865 27.9284C41.9994 28.2022 42.0286 28.5034 41.9706 28.7938C41.9126 29.0843 41.7699 29.3511 41.5605 29.5605L30.4395 40.6817C30.0226 41.101 29.5267 41.4335 28.9804 41.6598C28.4342 41.8861 27.8484 42.0018 27.2571 42H16.5V45H27.2571C28.2425 45.0027 29.2186 44.8099 30.1289 44.4328C31.0393 44.0556 31.8658 43.5016 32.5605 42.8028L43.6816 31.6817C44.0996 31.2639 44.4312 30.7679 44.6574 30.222C44.8836 29.6761 45 29.091 45 28.5C45 27.9091 44.8836 27.3239 44.6574 26.778C44.4312 26.2321 44.0996 25.7361 43.6816 25.3184Z" fill="#005CB8"/>
<path d="M25.5 24V16.5H27C28.5907 16.4982 30.1158 15.8655 31.2407 14.7407C32.3655 13.6158 32.9982 12.0908 33 10.5V6H28.5C26.9641 6.00246 25.4884 6.59705 24.3798 7.66005C23.6029 6.24978 22.4621 5.0736 21.0762 4.25401C19.6904 3.43441 18.1101 3.00137 16.5 3H12V7.5C12.0026 9.88614 12.9517 12.1738 14.6389 13.8611C16.3262 15.5483 18.6139 16.4974 21 16.5H22.5V24V27H25.5V24ZM28.5 9H30V10.5C29.9992 11.2954 29.6829 12.058 29.1204 12.6204C28.558 13.1829 27.7954 13.4992 27 13.5H25.5V12C25.5008 11.2046 25.8171 10.442 26.3796 9.87956C26.942 9.31712 27.7046 9.00079 28.5 9ZM21 13.5C19.4092 13.4982 17.8842 12.8655 16.7593 11.7407C15.6345 10.6158 15.0018 9.09075 15 7.5V6H16.5C18.0908 6.00179 19.6158 6.6345 20.7407 7.75933C21.8655 8.88416 22.4982 10.4092 22.5 12V13.5H21Z" fill="#005CB8"/>
</svg>
